# xmcd
#
# Track frame offsets:
#	150
#	15565
#	31770
#	45649
#	57508
#	69570
#	83849
#	100078
#	115045
#	126609
#	138153
#	148468
#	158355
#	171055
#	185460
#	196020
#	205159
#	219469
#	229093
#	243392
#
# Disc length: 3384 seconds
#
# Revision: 1
# Processed by: cddbd v1.5.2PL0 Copyright (c) Steve Scherf et al.
# Submitted via: audiograbber 1.83.01
#
DISCID=130d3614
DTITLE=Memphis Slim - Six Classic Albums [CD 1)
DYEAR=2016
DGENRE=Blues
TTITLE0=Walkin' the boogie (from: The Real Boogie Woogie - 1959)
TTITLE1=Cow cow blues (from: The Real Boogie Woogie - 1959)
TTITLE2=Jefferson County Blues (from: The Real Boogie Woogie - 1959)
TTITLE3=Four O'Clock Blues (from: The Real Boogie Woogie - 1959)
TTITLE4=Mister Freddie (from: The Real Boogie Woogie - 1959)
TTITLE5=Trouble in mind (from: The Real Boogie Woogie - 1959)
TTITLE6=44 Blues (from: The Real Boogie Woogie - 1959)
TTITLE7=88 Boogie (from: The Real Boogie Woogie - 1959)
TTITLE8=Sail on blues (from: The Real Boogie Woogie - 1959)
TTITLE9=Down home blues (from: The Real Boogie Woogie - 1959)
TTITLE10=Down that big road (from: The Real Boogie Woogie - 1959)
TTITLE11=Roll and tumble (from: The Real Boogie Woogie - 1959)
TTITLE12=Crowing rooster (from: The Real Boogie Woogie - 1959)
TTITLE13=Woman blues boogie (from: The Real Boogie Woogie - 1959)
TTITLE14=The come back (from: Memphis Slim at The Gate Of Horn - 1959)
TTITLE15=Steppin' out (from: Memphis Slim at The Gate Of Horn - 1959)
TTITLE16=Blue and lonesome (from: Memphis Slim at The Gate Of Horn - 1959)
TTITLE17=Rockin' the blues (from: Memphis Slim at The Gate Of Horn - 1959)
TTITLE18=Slim's Blues (from: Memphis Slim at The Gate Of Horn - 1959)
TTITLE19=Gotta find my baby (from: Memphis Slim at The Gate Of Horn - 1959)
EXTD=
EXTT0=
EXTT1=
EXTT2=
EXTT3=
EXTT4=
EXTT5=
EXTT6=
EXTT7=
EXTT8=
EXTT9=
EXTT10=
EXTT11=
EXTT12=
EXTT13=
EXTT14=
EXTT15=
EXTT16=
EXTT17=
EXTT18=
EXTT19=
PLAYORDER=
